<svg width="51" height="51" viewBox="0 0 51 51" fill="none" xmlns="http://www.w3.org/2000/svg">
<g clip-path="url(#clip0_9_308)">
<path d="M44.8375 33.6813C44.2701 33.1672 43.5899 32.7936 42.8517 32.5906C42.1135 32.3876 41.3379 32.3608 40.5875 32.5125L30.0687 34.3187C30.0556 32.9994 29.5208 31.7388 28.5812 30.8125L21.0375 23.375H5.3125C4.74891 23.375 4.20841 23.5989 3.8099 23.9974C3.41138 24.3959 3.1875 24.9364 3.1875 25.5C3.1875 26.0636 3.41138 26.6041 3.8099 27.0026C4.20841 27.4011 4.74891 27.625 5.3125 27.625H19.3375L25.6063 33.8937C25.7557 34.0516 25.839 34.2607 25.839 34.4781C25.839 34.6955 25.7557 34.9046 25.6063 35.0625C25.4309 35.2193 25.204 35.306 24.9688 35.306C24.7335 35.306 24.5066 35.2193 24.3312 35.0625L20.6125 31.3438C20.2034 30.9779 19.6738 30.7756 19.125 30.7756C18.5762 30.7756 18.0466 30.9779 17.6375 31.3438C17.2413 31.7588 17.0202 32.3106 17.0202 32.8844C17.0202 33.4582 17.2413 34.0099 17.6375 34.425L21.3563 38.0375C21.8197 38.5258 22.3811 38.9107 23.0036 39.1671C23.6262 39.4234 24.2958 39.5454 24.9688 39.525C25.6192 39.5221 26.265 39.4145 26.8812 39.2063L41.3313 36.6562C41.4799 36.6292 41.6326 36.6342 41.7792 36.6708C41.9257 36.7074 42.0628 36.7749 42.1813 36.8688C42.3727 37.0708 42.4857 37.3345 42.5 37.6125C42.505 37.8611 42.4227 38.1035 42.2674 38.2977C42.1121 38.4918 41.8936 38.6253 41.65 38.675L21.8875 42.2875L10.3062 32.8312H5.3125C4.74891 32.8312 4.20841 33.0551 3.8099 33.4536C3.41138 33.8522 3.1875 34.3927 3.1875 34.9563C3.1875 35.5198 3.41138 36.0603 3.8099 36.4589C4.20841 36.8574 4.74891 37.0813 5.3125 37.0813H8.81875L20.6125 46.75L42.3938 42.8187C43.6226 42.6155 44.7378 41.9785 45.5371 41.0232C46.3364 40.068 46.7667 38.8579 46.75 37.6125C46.7583 36.8537 46.5898 36.1035 46.2578 35.4211C45.9258 34.7388 45.4396 34.1431 44.8375 33.6813Z" fill="#FF0000"/>
<path d="M36.4437 21.3562C34.8793 21.3871 33.3483 20.9017 32.0874 19.975C31.8513 19.818 31.5862 19.7098 31.3077 19.6569C31.0291 19.6039 30.7428 19.6073 30.4656 19.6667C30.1883 19.7261 29.9258 19.8404 29.6934 20.0028C29.461 20.1652 29.2635 20.3725 29.1124 20.6125C28.9449 20.8118 28.8198 21.0432 28.7448 21.2925C28.6699 21.5418 28.6466 21.8038 28.6764 22.0624C28.7063 22.3211 28.7886 22.5709 28.9184 22.7966C29.0482 23.0223 29.2227 23.2191 29.4312 23.375C30.7984 24.3345 32.3569 24.9869 33.9999 25.2875V27.625C33.9999 28.1886 34.2238 28.7291 34.6223 29.1276C35.0208 29.5261 35.5613 29.75 36.1249 29.75C36.6885 29.75 37.229 29.5261 37.6275 29.1276C38.0261 28.7291 38.2499 28.1886 38.2499 27.625V25.2875C39.4155 25.1156 40.515 24.6392 41.4374 23.9062C42.1035 23.4173 42.6436 22.7768 43.0131 22.0378C43.3826 21.2988 43.5709 20.4825 43.5624 19.6562C43.5624 15.725 39.9499 14.45 36.8687 13.8125C33.7874 13.175 33.1499 12.4312 33.1499 11.9C33.1499 11.3687 33.3624 11.2625 33.6812 10.9437C34.2674 10.6286 34.9292 10.4815 35.5937 10.5187C36.8283 10.508 38.0417 10.839 39.0999 11.475C39.315 11.6505 39.5658 11.7771 39.8347 11.846C40.1036 11.9148 40.3844 11.9243 40.6573 11.8738C40.9303 11.8232 41.189 11.7139 41.4155 11.5532C41.6419 11.3926 41.8307 11.1847 41.9687 10.9437C42.1508 10.7265 42.2851 10.4733 42.3629 10.2007C42.4407 9.92802 42.4601 9.64207 42.42 9.36141C42.3799 9.08076 42.2812 8.81169 42.1302 8.57174C41.9792 8.33179 41.7794 8.12633 41.5437 7.96875C40.5334 7.34512 39.4168 6.91291 38.2499 6.69375V4.25C38.2499 3.68641 38.0261 3.14591 37.6275 2.7474C37.229 2.34888 36.6885 2.125 36.1249 2.125C35.5613 2.125 35.0208 2.34888 34.6223 2.7474C34.2238 3.14591 33.9999 3.68641 33.9999 4.25V6.5875C30.8124 7.11875 28.6874 9.24375 28.6874 12.1125C28.6874 14.9812 32.1937 17.3187 35.5937 17.9562C38.9937 18.5937 39.0999 19.3375 39.0999 19.8687C39.0999 20.4 37.9312 21.3562 36.4437 21.3562Z" fill="#FF0000"/>
</g>
<defs>
<clipPath id="clip0_9_308">
<rect width="51" height="51" fill="white"/>
</clipPath>
</defs>
</svg>
