<svg width="53" height="53" viewBox="0 0 53 53" fill="none" xmlns="http://www.w3.org/2000/svg">
<path fill-rule="evenodd" clip-rule="evenodd" d="M4.41659 32.6899V46.927C4.41659 47.8413 5.15859 48.5833 6.07284 48.5833H9.63709C10.0293 48.5833 10.4089 48.4442 10.7081 48.1906C11.0074 47.9371 11.2069 47.5855 11.2713 47.1986L12.1458 41.9583H40.8541L41.7264 47.1986C41.7907 47.5855 41.9903 47.9371 42.2895 48.1906C42.5888 48.4442 42.9683 48.5833 43.3605 48.5833H46.927C47.3663 48.5833 47.7875 48.4088 48.0981 48.0981C48.4088 47.7875 48.5833 47.3663 48.5833 46.927V32.6899C48.5834 30.0938 47.815 27.5558 46.3749 25.3958L44.6524 22.812C44.4988 22.582 44.3672 22.338 44.2593 22.0833H46.4544C46.7622 22.0832 47.0638 21.9975 47.3256 21.8356C47.5873 21.6737 47.7988 21.4421 47.9362 21.1668L48.4883 20.0626C48.6143 19.8103 48.6737 19.53 48.661 19.2482C48.6483 18.9664 48.5639 18.6926 48.4157 18.4526C48.2675 18.2126 48.0605 18.0145 47.8142 17.8769C47.568 17.7394 47.2908 17.667 47.0087 17.6666H43.2833L42.5987 14.2525C42.3904 13.2127 41.8871 12.2549 41.1489 11.4936C40.4107 10.7323 39.4688 10.1997 38.436 9.9595C35.2074 9.20867 31.228 8.83325 26.4999 8.83325C21.7697 8.83325 17.7925 9.20867 14.5639 9.9595C13.5306 10.1993 12.5883 10.7318 11.8497 11.4931C11.1111 12.2544 10.6074 13.2124 10.399 14.2525L9.71438 17.6666H5.99334C5.7113 17.667 5.43403 17.7394 5.18781 17.8769C4.94159 18.0145 4.73457 18.2126 4.58639 18.4526C4.4382 18.6926 4.35375 18.9664 4.34104 19.2482C4.32833 19.53 4.38778 19.8103 4.51376 20.0626L5.06584 21.1668C5.20313 21.4418 5.41425 21.6732 5.67555 21.835C5.93686 21.9969 6.23805 22.0828 6.54543 22.0833H8.74272C8.63481 22.3379 8.5032 22.5819 8.34963 22.812L6.62493 25.3958C5.18509 27.5555 4.41659 30.0929 4.41659 32.6899ZM39.6638 22.0921C39.8159 22.8559 40.0684 23.5962 40.4146 24.2938H12.5852C12.9319 23.5982 13.1837 22.8584 13.336 22.0921L14.7317 15.1204C14.7729 14.9119 14.8734 14.7198 15.021 14.567C15.1687 14.4143 15.3573 14.3074 15.5643 14.2591C18.4307 13.5966 22.0833 13.2499 26.4999 13.2499C30.9166 13.2499 34.5692 13.5944 37.4356 14.2613C37.6426 14.309 37.8315 14.4155 37.9796 14.5678C38.1276 14.7202 38.2286 14.9121 38.2703 15.1204L39.6638 22.0921ZM12.1458 35.3333C13.0243 35.3333 13.8668 34.9843 14.488 34.363C15.1093 33.7418 15.4583 32.8993 15.4583 32.0208C15.4583 31.1422 15.1093 30.2997 14.488 29.6785C13.8668 29.0572 13.0243 28.7083 12.1458 28.7083C11.2672 28.7083 10.4247 29.0572 9.80347 29.6785C9.18225 30.2997 8.83326 31.1422 8.83326 32.0208C8.83326 32.8993 9.18225 33.7418 9.80347 34.363C10.4247 34.9843 11.2672 35.3333 12.1458 35.3333ZM44.1666 32.0208C44.1666 32.8993 43.8176 33.7418 43.1964 34.363C42.5752 34.9843 41.7326 35.3333 40.8541 35.3333C39.9756 35.3333 39.133 34.9843 38.5118 34.363C37.8906 33.7418 37.5416 32.8993 37.5416 32.0208C37.5416 31.1422 37.8906 30.2997 38.5118 29.6785C39.133 29.0572 39.9756 28.7083 40.8541 28.7083C41.7326 28.7083 42.5752 29.0572 43.1964 29.6785C43.8176 30.2997 44.1666 31.1422 44.1666 32.0208Z" fill="#FF0000"/>
</svg>
