<svg width="15" height="15" viewBox="0 0 15 15" fill="none" xmlns="http://www.w3.org/2000/svg">
<path d="M14.7565 5.49646H13.7569C13.6484 5.49646 13.5546 5.56388 13.5194 5.66648L12.8247 7.74774H12.1446L11.4675 6.61917C11.4235 6.54296 11.3414 6.49899 11.2535 6.49899H10.2539V5.74856C10.2539 5.61078 10.1425 5.49939 10.0047 5.49939H8.25471V4.4998H9.00514C9.14291 4.4998 9.2543 4.38841 9.2543 4.25063V2.74685C9.2543 2.60907 9.14291 2.49768 9.00514 2.49768H4.49964C4.36186 2.49768 4.25047 2.60907 4.25047 2.74685V4.2477C4.25047 4.38548 4.36186 4.49687 4.49964 4.49687H5.25006V5.49646H3.24795C3.18052 5.49646 3.11897 5.52284 3.07206 5.56975C3.02516 5.61665 2.99878 5.68114 2.99878 5.74563V6.49605H1.24876C1.11099 6.49605 0.999593 6.60745 0.999593 6.74522V8.24608H0.498331V7.49858C0.498331 7.36081 0.386939 7.24941 0.249166 7.24941C0.111392 7.24941 0 7.36081 0 7.49858V9.5007C0 9.63847 0.111392 9.74986 0.249166 9.74986C0.386939 9.74986 0.498331 9.63847 0.498331 9.5007V8.75027H0.999593V10.7524C0.999593 10.8902 1.11099 11.0016 1.24876 11.0016H3.11603L4.04234 12.391C4.08925 12.4614 4.16839 12.5024 4.25047 12.5024H11.2535C11.3473 12.5024 11.4352 12.4496 11.4763 12.3646L12.1563 11.0016H12.8481L13.5282 12.3646C13.5722 12.4496 13.6572 12.5024 13.751 12.5024H14.7506C14.8884 12.5024 14.9998 12.391 14.9998 12.2532V5.74856C15.0056 5.60785 14.8942 5.49646 14.7565 5.49646ZM2.99878 10.5003H1.49792V6.99732H2.99878V10.5003ZM7.75051 5.49646H5.7484V4.49687H7.75051V5.49646ZM12.7543 10.5003H12.2531V8.24901H12.7543V10.5003Z" fill="#FF0000"/>
</svg>
