<svg width="29" height="29" viewBox="0 0 29 29" fill="none" xmlns="http://www.w3.org/2000/svg">
<path d="M2.51834 3.32441C2.68435 2.85225 3.2017 2.60404 3.67388 2.77006L4.03807 2.89809C4.78304 3.15997 5.41577 3.3824 5.9137 3.62673C6.44613 3.88797 6.90269 4.2098 7.24608 4.71229C7.5868 5.2109 7.72748 5.75794 7.7924 6.35773C7.82146 6.62622 7.8368 6.9234 7.84488 7.25005H20.6993C22.7354 7.25005 24.5682 7.25005 25.1046 7.94735C25.6411 8.64467 25.4313 9.69534 25.0119 11.7967L24.408 14.7266C24.0272 16.574 23.8368 17.4977 23.1701 18.0409C22.5035 18.5842 21.5604 18.5842 19.6742 18.5842H13.2665C9.89657 18.5842 8.21161 18.5842 7.16471 17.48C6.1178 16.3757 6.04139 15.2028 6.04139 11.6484V8.50468C6.04139 7.61058 6.04016 7.0122 5.99043 6.55278C5.9429 6.11373 5.85868 5.89452 5.74962 5.73491C5.64321 5.5792 5.48169 5.43368 5.11529 5.25391C4.72519 5.06249 4.19504 4.87454 3.38834 4.59092L3.07271 4.47994C2.60053 4.31394 2.35234 3.79659 2.51834 3.32441Z" fill="#FF0000"/>
<path d="M9.0625 21.75C10.0635 21.75 10.875 22.5615 10.875 23.5625C10.875 24.5635 10.0635 25.375 9.0625 25.375C8.06148 25.375 7.25 24.5635 7.25 23.5625C7.25 22.5615 8.06148 21.75 9.0625 21.75Z" fill="#FF0000"/>
<path d="M19.9375 21.7501C20.9385 21.7501 21.75 22.5615 21.75 23.5626C21.75 24.5636 20.9385 25.3751 19.9375 25.3751C18.9365 25.3751 18.125 24.5636 18.125 23.5626C18.125 22.5615 18.9365 21.7501 19.9375 21.7501Z" fill="#FF0000"/>
</svg>
