<svg width="30" height="30" viewBox="0 0 44 44" fill="none" xmlns="http://www.w3.org/2000/svg">
<path d="M22.0001 3.66675C18.3741 3.66675 14.8295 4.74198 11.8146 6.75647C8.79973 8.77096 6.4499 11.6342 5.0623 14.9842C3.67469 18.3342 3.31163 22.0204 4.01903 25.5767C4.72642 29.1331 6.4725 32.3997 9.03647 34.9637C11.6004 37.5277 14.8671 39.2738 18.4234 39.9811C21.9798 40.6885 25.666 40.3255 29.016 38.9379C32.3659 37.5503 35.2292 35.2004 37.2437 32.1855C39.2582 29.1706 40.3334 25.6261 40.3334 22.0001C40.3334 19.5925 39.8592 17.2085 38.9379 14.9842C38.0165 12.7599 36.6661 10.7389 34.9637 9.03646C33.2613 7.33405 31.2403 5.98363 29.016 5.06229C26.7917 4.14095 24.4077 3.66675 22.0001 3.66675ZM32.4061 18.7679L21.4061 28.8512C21.0578 29.1706 20.5997 29.3431 20.1273 29.3329C19.6549 29.3226 19.2047 29.1304 18.8706 28.7962L13.3706 23.2962C13.1955 23.1271 13.0558 22.9248 12.9597 22.7012C12.8637 22.4775 12.8131 22.2369 12.811 21.9935C12.8088 21.7501 12.8552 21.5086 12.9474 21.2833C13.0396 21.058 13.1757 20.8533 13.3479 20.6812C13.52 20.5091 13.7247 20.3729 13.95 20.2807C14.1753 20.1886 14.4167 20.1422 14.6602 20.1443C14.9036 20.1464 15.1442 20.197 15.3678 20.2931C15.5915 20.3891 15.7938 20.5288 15.9629 20.7039L20.2218 24.9627L29.9274 16.0656C30.2858 15.7369 30.76 15.564 31.2458 15.585C31.7316 15.606 32.1892 15.8191 32.5179 16.1774C32.8466 16.5358 33.0195 17.01 32.9985 17.4958C32.9775 17.9816 32.7644 18.4392 32.4061 18.7679Z" fill="#FF0000"/>
</svg>
