<svg width="33" height="33" viewBox="0 0 33 33" fill="none" xmlns="http://www.w3.org/2000/svg">
<path d="M11.6875 27.5C11.1405 27.5 10.6159 27.2827 10.2291 26.8959C9.8423 26.5091 9.625 25.9845 9.625 25.4375V8.25H2.40625C2.13275 8.25 1.87044 8.35865 1.67705 8.55205C1.48365 8.74544 1.375 9.00775 1.375 9.28125V30.9375C1.375 31.4845 1.5923 32.0091 1.97909 32.3959C2.36589 32.7827 2.89049 33 3.4375 33H19.9375C20.4845 33 21.0091 32.7827 21.3959 32.3959C21.7827 32.0091 22 31.4845 22 30.9375V27.5H11.6875Z" fill="#8E8E8E"/>
<path d="M26.8125 6.1875H33L26.8125 0V6.1875Z" fill="#8E8E8E"/>
<path d="M24.75 8.25V0H13.4062C13.1327 0 12.8704 0.108649 12.677 0.302046C12.4836 0.495443 12.375 0.757746 12.375 1.03125V22.6875C12.375 23.2345 12.5923 23.7591 12.9791 24.1459C13.3659 24.5327 13.8905 24.75 14.4375 24.75H30.9375C31.4845 24.75 32.0091 24.5327 32.3959 24.1459C32.7827 23.7591 33 23.2345 33 22.6875V8.25H24.75Z" fill="#8E8E8E"/>
</svg>
