<svg width="17" height="17" viewBox="0 0 17 17" fill="none" xmlns="http://www.w3.org/2000/svg">
<path d="M2.74401 1.60242C2.28813 1.6047 1.85169 1.78741 1.53014 2.11058C1.20858 2.43375 1.02807 2.8711 1.02808 3.32699C1.02899 3.72759 1.16934 4.11537 1.42502 4.42376C1.68069 4.73215 2.03576 4.94191 2.42925 5.01703V11.9797C2.0352 12.055 1.6797 12.2652 1.42396 12.5743C1.16821 12.8834 1.02822 13.2719 1.02808 13.6731C1.02843 14.1302 1.21028 14.5686 1.53366 14.8917C1.85704 15.2148 2.29549 15.3963 2.75265 15.3963C3.20957 15.396 3.64768 15.2143 3.97077 14.8912C4.29387 14.5681 4.47554 14.13 4.47589 13.6731C4.47582 13.2722 4.33606 12.8838 4.08065 12.5747C3.82523 12.2657 3.47012 12.0553 3.07638 11.9797V8.82211H8.17472V11.9797C7.78067 12.055 7.42517 12.2652 7.16943 12.5743C6.91368 12.8834 6.77369 13.2719 6.77354 13.6731C6.77372 13.8996 6.81852 14.1239 6.90539 14.3331C6.99226 14.5423 7.1195 14.7324 7.27983 14.8924C7.44017 15.0524 7.63046 15.1793 7.83984 15.2658C8.04921 15.3522 8.27358 15.3966 8.50011 15.3963C8.95703 15.396 9.39514 15.2143 9.71823 14.8912C10.0413 14.5681 10.223 14.13 10.2233 13.6731C10.2232 13.2719 10.0832 12.8834 9.82747 12.5743C9.57172 12.2652 9.21623 12.055 8.82218 11.9797V8.82211H14.5696V5.01703C14.9631 4.94191 15.3182 4.73215 15.5739 4.42376C15.8295 4.11537 15.9699 3.72759 15.9708 3.32699C15.9708 2.86984 15.7893 2.43139 15.4662 2.10801C15.143 1.78463 14.7047 1.60277 14.2476 1.60242C14.2454 1.60242 14.2431 1.60242 14.2409 1.60242C13.7849 1.60453 13.3483 1.78715 13.0266 2.11035C12.7049 2.43354 12.5243 2.87099 12.5243 3.32699C12.5252 3.72759 12.6656 4.11537 12.9213 4.42376C13.1769 4.73215 13.532 4.94191 13.9255 5.01703V8.17465H8.82218V5.01703C9.21567 4.94191 9.57073 4.73215 9.82641 4.42376C10.0821 4.11537 10.2224 3.72759 10.2233 3.32699C10.2233 2.86984 10.0418 2.43139 9.7187 2.10801C9.39557 1.78463 8.95726 1.60277 8.50011 1.60242C8.49789 1.60242 8.49568 1.60242 8.49347 1.60242C8.03689 1.60365 7.59943 1.78589 7.27701 2.10918C6.9546 2.43246 6.77354 2.87041 6.77354 3.32699C6.77446 3.72759 6.9148 4.11537 7.17048 4.42376C7.42616 4.73215 7.78123 4.94191 8.17472 5.01703V8.17465H3.07638V5.01703C3.46956 4.94157 3.82424 4.73166 4.07959 4.4233C4.33494 4.11495 4.47505 3.72735 4.47589 3.32699C4.47589 2.86984 4.29438 2.43139 3.97124 2.10801C3.64811 1.78463 3.2098 1.60277 2.75265 1.60242C2.74977 1.60242 2.74689 1.60242 2.74401 1.60242Z" fill="#FF0000"/>
</svg>
