<svg width="76" height="76" viewBox="0 0 76 76" fill="none" xmlns="http://www.w3.org/2000/svg">
<path fill-rule="evenodd" clip-rule="evenodd" d="M11.7016 35.3687C8.74385 35.3687 6.3497 37.7629 6.3497 40.7207C6.3497 43.6784 8.74385 46.0726 11.7016 46.0726C14.6594 46.0726 17.0536 43.6784 17.0536 40.7207C17.0536 37.7629 14.6594 35.3687 11.7016 35.3687ZM21.8618 31.0942C22.1561 31.7276 22.3905 32.4359 22.5701 33.204C22.9791 34.4859 22.3756 34.7552 20.979 34.2315C19.9515 33.618 18.924 32.9995 17.8965 32.386C17.3728 32.0169 17.1234 31.6528 17.2082 31.2937C17.3778 30.5854 18.7444 30.2163 19.8667 29.9969C21.2932 29.7126 21.1934 29.6527 21.8618 31.0942ZM49.3896 38.2318C48.0179 38.2318 46.9007 39.344 46.9007 40.7207C46.9007 42.0923 48.013 43.2096 49.3896 43.2096C50.7612 43.2096 51.8785 42.0973 51.8785 40.7207C51.8785 39.344 50.7662 38.2318 49.3896 38.2318ZM11.7016 38.2318C10.33 38.2318 9.2127 39.344 9.2127 40.7207C9.2127 42.0923 10.325 43.2096 11.7016 43.2096C13.0733 43.2096 14.1906 42.0973 14.1906 40.7207C14.1906 39.344 13.0783 38.2318 11.7016 38.2318ZM38.2767 34.835C36.8951 33.3537 35.299 32.391 33.4535 31.4633C29.4134 29.4282 26.9394 29.6776 22.6499 29.6776L24.0914 33.4185C24.6949 34.2166 25.3782 34.7802 26.4157 34.835H38.2767ZM49.3896 35.3687C46.4318 35.3687 44.0377 37.7629 44.0377 40.7207C44.0377 43.6784 46.4318 46.0726 49.3896 46.0726C52.3474 46.0726 54.7415 43.6784 54.7415 40.7207C54.7415 37.7629 52.3474 35.3687 49.3896 35.3687ZM40.9303 33.7377C39.1745 32.6454 37.2642 31.6678 35.1494 30.8348C28.7101 28.296 23.7871 27.8421 17.0336 29.8871C14.9986 30.6602 12.9635 31.4334 10.9285 31.9122C8.91843 32.391 0.214684 32.8499 0.000205994 34.3113L2.14996 36.8801C1.36687 37.5584 0.728428 38.3914 0.493999 39.6932C0.558842 40.4962 0.778305 41.1696 1.15738 41.7083C1.80081 42.631 3.68621 43.5837 4.70372 43.04C5.02793 42.8654 5.21247 42.5163 5.20749 41.9227C5.17756 30.0018 19.5674 31.3585 18.4851 43.3293H43.5937C38.9451 31.3386 58.7767 31.2937 55.2553 42.9153C56.4922 44.252 59.4101 42.237 61.2905 37.9524C60.7768 37.4437 60.2132 36.9599 59.5847 36.511C59.6146 36.486 59.5548 36.6057 59.6595 36.4262C59.7643 36.2466 59.4051 35.4934 58.6669 35.0595C54.7964 32.79 45.4642 32.8499 40.9303 33.7377Z" fill="white"/>
</svg>
