<svg width="46" height="46" viewBox="0 0 46 46" fill="none" xmlns="http://www.w3.org/2000/svg">
<path d="M36.4163 22.9999H42.1663V38.3333C42.1663 39.3499 41.7625 40.3249 41.0436 41.0438C40.3247 41.7627 39.3497 42.1666 38.333 42.1666H36.4163V22.9999ZM32.583 7.66659V42.1666H7.66634C6.64968 42.1666 5.67465 41.7627 4.95576 41.0438C4.23688 40.3249 3.83301 39.3499 3.83301 38.3333V7.66659C3.83301 6.64992 4.23688 5.6749 4.95576 4.95601C5.67465 4.23712 6.64968 3.83325 7.66634 3.83325H28.7497C29.7663 3.83325 30.7414 4.23712 31.4602 4.95601C32.1791 5.6749 32.583 6.64992 32.583 7.66659ZM19.1663 30.6666H9.58301V34.4999H19.1663V30.6666ZM26.833 21.0833H9.58301V24.9166H26.833V21.0833ZM26.833 11.4999H9.58301V15.3333H26.833V11.4999Z" fill="#FF0000"/>
</svg>
