<svg width="46" height="46" viewBox="0 0 46 46" fill="none" xmlns="http://www.w3.org/2000/svg">
<g clip-path="url(#clip0_22_7397)">
<path d="M34.0692 26.1165L30.718 18.0791C30.2868 17.0531 29.3614 16.2858 28.2293 16.1025C28.4054 14.7387 28.8834 12.8089 29.3434 11.8332L28.5043 11.012C27.8789 12.1153 27.2842 14.4782 27.0973 16.0612H10.4187C9.05309 16.0612 7.90488 16.8985 7.40715 18.0791L4.02543 26.1165C2.13152 26.6448 0.735352 28.3518 0.735352 30.4326V39.868H3.65168V42.7538C3.65168 44.3674 4.95621 45.6414 6.53926 45.6414C8.1223 45.6414 9.42504 44.3674 9.42504 42.7538V39.868H28.639V42.7538C28.639 44.3674 29.9112 45.6414 31.5248 45.6414C33.1079 45.6414 34.4106 44.3674 34.4106 42.7538V39.868H37.3593V30.4326C37.3593 28.3518 35.9631 26.6448 34.0692 26.1165ZM9.82934 19.0099C9.95332 18.6685 10.2947 18.4205 10.6667 18.4205H27.4279C27.8304 18.4205 28.1718 18.6685 28.2976 19.0099L31.1834 25.962H6.94176L9.82934 19.0099ZM6.72434 34.684C5.11074 34.684 3.80801 33.3795 3.80801 31.7659C3.80801 30.1523 5.11074 28.8496 6.72434 28.8496C8.33973 28.8496 9.64246 30.1523 9.64246 31.7659C9.64246 33.3795 8.33973 34.684 6.72434 34.684ZM31.1834 34.684C29.5698 34.684 28.2653 33.3795 28.2653 31.7659C28.2653 30.1523 29.5698 28.8496 31.1834 28.8496C32.797 28.8496 34.1015 30.1523 34.1015 31.7659C34.1015 33.3795 32.797 34.684 31.1834 34.684ZM43.359 0.360107L29.0289 2.94222L26.481 8.90065L28.4881 10.9832C29.0343 9.88354 29.7657 8.85753 30.6138 8.20526C30.6084 8.1837 30.6048 8.16214 30.6012 8.14058C30.4269 7.18284 31.063 6.26464 32.0207 6.09214C32.9803 5.91784 33.8967 6.55394 34.071 7.51167C34.2435 8.4712 33.6074 9.38761 32.6496 9.5619C32.116 9.65894 31.5967 9.5044 31.2086 9.18276C30.6371 9.65534 30.0693 10.4064 29.5788 11.357C29.4997 11.5115 29.4261 11.6642 29.356 11.8152L31.0522 13.5761L45.2817 10.9778L43.359 0.360107ZM39.4562 9.40917L39.6089 10.4046L38.6584 10.5502L38.5182 9.63558C37.848 9.69308 37.1957 9.623 36.795 9.47026L36.9136 8.30948C37.3646 8.45323 37.972 8.57362 38.5991 8.47839C39.14 8.39573 39.4832 8.12979 39.4203 7.71831C39.3987 7.33737 39.0339 7.17925 38.29 7.03729C37.2011 6.863 36.4195 6.47487 36.2721 5.51534C36.1392 4.64386 36.6567 3.88558 37.6629 3.51722L37.5228 2.6098L38.4751 2.46425L38.6081 3.33573C39.2783 3.27823 39.715 3.33573 40.0707 3.45073L39.9486 4.57558C39.6772 4.49292 39.1903 4.35276 38.4859 4.46237C37.866 4.55581 37.7025 4.87565 37.7402 5.12901C37.7905 5.45964 38.1535 5.61956 39.0268 5.77948C40.2504 6.02026 40.7949 6.48206 40.9279 7.35534C41.0626 8.22862 40.5577 9.07136 39.4562 9.40917Z" fill="#FF0000"/>
</g>
<defs>
<clipPath id="clip0_22_7397">
<rect width="46" height="46" fill="white"/>
</clipPath>
</defs>
</svg>
