<svg width="16" height="16" viewBox="0 0 16 16" fill="none" xmlns="http://www.w3.org/2000/svg">
<g clip-path="url(#clip0_9_214)">
<path d="M10.0969 0.000180283L8.75293 1.34412L14.6558 7.24697L15.9997 5.90304L10.0969 0.000180283Z" fill="#FF0000"/>
<path d="M8.02483 2.07227L5.29943 4.79767L7.26059 6.75883L2.09291 11.9264C1.55257 11.9119 1.00752 12.1098 0.596054 12.5212C-0.198685 13.316 -0.198685 14.6092 0.596054 15.404C0.993486 15.8014 1.51545 16 2.03747 16C2.55943 16 3.08146 15.8013 3.47886 15.404C3.89032 14.9925 4.08816 14.4474 4.0736 13.9071L9.24125 8.73946L11.2024 10.7006L13.9278 7.97522L8.02483 2.07227ZM2.75077 14.6759C2.35747 15.0692 1.71748 15.0692 1.32411 14.6759C0.9308 14.2826 0.9308 13.6426 1.32411 13.2492C1.52079 13.0526 1.77907 12.9542 2.03744 12.9542C2.29572 12.9542 2.55409 13.0526 2.75074 13.2492C3.14408 13.6426 3.14408 14.2826 2.75077 14.6759ZM10.086 6.66752C9.87796 6.87558 9.54059 6.87558 9.33256 6.66752C9.1245 6.45946 9.1245 6.12209 9.33256 5.91403C9.54062 5.70597 9.87799 5.70597 10.086 5.91403C10.2941 6.12209 10.2941 6.45942 10.086 6.66752Z" fill="#FF0000"/>
</g>
<defs>
<clipPath id="clip0_9_214">
<rect width="16" height="16" fill="white"/>
</clipPath>
</defs>
</svg>
