<svg width="45" height="45" viewBox="0 0 45 45" fill="none" xmlns="http://www.w3.org/2000/svg">
<g clip-path="url(#clip0_16_2457)">
<path d="M22.5 20.625C21.465 20.625 20.625 21.465 20.625 22.5C20.625 23.535 21.465 24.3749 22.5 24.3749C23.535 24.3749 24.3749 23.535 24.3749 22.5C24.3749 21.465 23.535 20.625 22.5 20.625Z" fill="black"/>
<path d="M38.5463 6.75562C38.4957 6.70315 38.4619 6.64128 38.4094 6.59065C38.3626 6.54187 38.3063 6.5119 38.2576 6.46506C34.1944 2.47315 28.6331 0 22.5 0C16.3669 0 10.8056 2.47122 6.74438 6.46497C6.6956 6.50997 6.6375 6.54187 6.59065 6.59057C6.53818 6.64119 6.50443 6.70307 6.45381 6.75554C2.46753 10.8169 0 16.3725 0 22.5C0 28.6275 2.46753 34.1831 6.45372 38.2444C6.50435 38.2968 6.5381 38.3587 6.59057 38.4093C6.63741 38.4581 6.6956 38.4899 6.74429 38.5349C10.8056 42.5288 16.3669 45 22.5 45C28.6331 45 34.1944 42.5288 38.2556 38.535C38.3044 38.49 38.3625 38.4581 38.4093 38.4094C38.4618 38.3588 38.4956 38.2969 38.5462 38.2445C42.5325 34.1831 45 28.6275 45 22.5C45 16.3725 42.5325 10.8169 38.5463 6.75562ZM29.7657 5.21622C29.7207 5.23872 29.6738 5.265 29.6288 5.2875C29.6138 5.2425 29.6007 5.19565 29.5857 5.15065C29.6456 5.175 29.7075 5.19187 29.7657 5.21622ZM30.4538 9.24187C31.875 7.82438 34.1512 7.79247 35.6213 9.12938C35.7094 9.2156 35.7938 9.3019 35.88 9.38813C36.5044 10.0782 36.8569 10.9557 36.8569 11.8931C36.8569 12.8943 36.467 13.8356 35.7582 14.5443C34.2995 16.0068 31.9163 16.0087 30.4538 14.5443C28.9931 13.0837 28.9931 10.7044 30.4538 9.24187ZM22.5 3.75003C24.5682 3.75003 26.25 5.4319 26.25 7.50006C26.25 9.56812 24.5682 11.25 22.5 11.25C20.4318 11.25 18.75 9.56812 18.75 7.49997C18.75 5.4319 20.4318 3.75003 22.5 3.75003ZM9.11997 9.38813C9.20619 9.3019 9.2925 9.2156 9.37872 9.12938C10.0913 8.4825 10.9893 8.145 11.8949 8.145C12.853 8.145 13.8149 8.51062 14.5462 9.24187C16.0068 10.7025 16.0068 13.0837 14.5462 14.5444C13.0837 16.0088 10.7005 16.0069 9.24179 14.5444C8.53304 13.8357 8.14307 12.8944 8.14307 11.8932C8.14315 10.9557 8.4956 10.0782 9.11997 9.38813ZM3.75003 22.5C3.75003 20.4318 5.4319 18.75 7.50006 18.75C9.56812 18.75 11.25 20.4318 11.25 22.5C11.25 24.5682 9.56812 26.25 7.49997 26.25C5.4319 26.25 3.75003 24.5682 3.75003 22.5ZM14.5462 35.7581C13.1287 37.1775 10.8488 37.2075 9.37872 35.8706C9.29057 35.7844 9.20619 35.6981 9.11997 35.6119C8.4956 34.9218 8.14307 34.0443 8.14307 33.1069C8.14307 32.1057 8.53304 31.1644 9.24179 30.4557C9.97119 29.7244 10.9331 29.3588 11.8949 29.3588C12.853 29.3588 13.8149 29.7244 14.5462 30.4557C16.0069 31.9163 16.0069 34.2975 14.5462 35.7581ZM22.5 41.25C20.4318 41.25 18.75 39.5681 18.75 37.4999C18.75 35.4318 20.4318 33.75 22.5 33.75C24.5682 33.75 26.25 35.4319 26.25 37.5C26.25 39.5682 24.5682 41.25 22.5 41.25ZM22.5 30C18.3638 30 15 26.6362 15 22.5C15 18.3638 18.3638 15 22.5 15C26.6362 15 30 18.3638 30 22.5C30 26.6362 26.6362 30 22.5 30ZM35.88 35.6119C35.7938 35.7 35.7075 35.7862 35.6194 35.8725C34.1532 37.2056 31.877 37.1775 30.4538 35.7581C28.9932 34.2956 28.9932 31.9163 30.4538 30.4556C31.9163 28.9893 34.2995 28.9931 35.7582 30.4556C36.467 31.1643 36.8569 32.1056 36.8569 33.1068C36.8568 34.0443 36.5044 34.9218 35.88 35.6119ZM37.5 26.25C35.4319 26.25 33.75 24.5682 33.75 22.5C33.75 20.4318 35.4319 18.75 37.5 18.75C39.5682 18.75 41.2501 20.4318 41.2501 22.5C41.2501 24.5682 39.5681 26.25 37.5 26.25Z" fill="black"/>
</g>
<defs>
<clipPath id="clip0_16_2457">
<rect width="45" height="45" fill="white"/>
</clipPath>
</defs>
</svg>
