<svg width="47" height="47" viewBox="0 0 47 47" fill="none" xmlns="http://www.w3.org/2000/svg">
<g clip-path="url(#clip0_16_2340)">
<path d="M21.5415 23.5C21.5415 24.581 22.4188 25.4583 23.4998 25.4583C24.5808 25.4583 25.4581 24.581 25.4581 23.5C25.4581 22.419 24.5808 21.5417 23.4998 21.5417C22.4188 21.5417 21.5415 22.419 21.5415 23.5Z" fill="white"/>
<path d="M23.5 0C10.5216 0 0 10.5216 0 23.5C0 36.4784 10.5216 47 23.5 47C36.4784 47 47 36.4784 47 23.5C47 10.5216 36.4784 0 23.5 0ZM23.5 43.0833C12.6847 43.0833 3.9167 34.3153 3.9167 23.5C3.9167 12.6847 12.6847 3.9167 23.5 3.9167C34.3153 3.9167 43.0833 12.6847 43.0833 23.5C43.0833 34.3153 34.3153 43.0833 23.5 43.0833Z" fill="white"/>
<path d="M32.3548 19.9724C34.7614 19.9724 37.0148 18.9871 38.6552 17.2792C39.2461 16.664 39.3708 15.737 38.9634 14.9875C36.4246 10.3159 31.9131 7.00393 26.6708 6.04172C25.8229 5.88603 24.9729 6.30325 24.5773 7.0692C23.9296 8.32333 23.5854 9.71029 23.5854 11.1442C23.5854 16.0157 27.5078 19.9724 32.3548 19.9724ZM27.5753 10.2936C30.4338 11.1919 32.9219 13.0173 34.6565 15.4673C33.9607 15.8491 33.1747 16.0557 32.3549 16.0557C29.6787 16.0557 27.5021 13.8601 27.5021 11.1442C27.5021 10.8563 27.5267 10.5721 27.5753 10.2936Z" fill="white"/>
<path d="M41.0121 21.5202C40.9253 20.7387 40.3793 20.0848 39.6257 19.8599C38.8112 19.6168 37.9732 19.4902 37.123 19.4902C32.2761 19.4902 28.3536 23.447 28.3536 28.3184C28.3536 29.5502 28.6074 30.7343 29.0707 31.814C27.5528 30.5509 25.6093 29.796 23.4997 29.796C19.2139 29.796 15.5868 32.9119 14.8662 37.1163C14.7242 37.9442 15.126 38.7703 15.8648 39.1698C18.2958 40.4844 21.016 41.2057 23.8401 41.2598C26.443 41.1989 28.8764 40.6091 31.0968 39.5382C31.8527 39.1737 32.2922 38.3682 32.1898 37.5353C32.0852 36.6853 31.8612 35.8755 31.5377 35.1211C32.2188 35.6877 32.9899 36.1562 33.8337 36.5004C34.566 36.7991 35.4061 36.6279 35.9632 36.0665C39.2455 32.7594 41.1238 28.2822 41.1238 23.5108C41.1239 22.849 41.0861 22.1862 41.0121 21.5202ZM23.8305 37.3441C22.2461 37.3124 20.6642 36.99 19.1778 36.401C19.9836 34.7924 21.6313 33.7128 23.4996 33.7128C25.4543 33.7128 27.1583 34.8935 27.9186 36.6171C26.6173 37.063 25.2432 37.31 23.8305 37.3441ZM34.164 32.209C32.9961 31.2994 32.2703 29.8783 32.2703 28.3185C32.2703 25.6026 34.4469 23.407 37.123 23.407C37.151 23.407 37.1789 23.4073 37.2068 23.4078C37.2071 23.4421 37.2072 23.4764 37.2072 23.5108C37.2073 26.7335 36.1139 29.7766 34.164 32.209Z" fill="white"/>
<path d="M17.9647 27.6319C17.9647 24.2916 16.1205 21.3818 13.3987 19.8823C13.8079 19.9412 14.2241 19.972 14.6451 19.972C19.4921 19.972 23.4146 16.0152 23.4146 11.1438C23.4146 9.7086 23.0689 8.31806 22.4185 7.06641C22.0219 6.30321 21.1738 5.88802 20.3278 6.04306C15.0891 7.00289 10.5769 10.3153 8.03511 14.986C7.62688 15.7362 7.75182 16.6643 8.34391 17.2797C8.96556 17.9259 9.67478 18.4684 10.4465 18.8933C10.0378 18.8346 9.62025 18.8036 9.19533 18.8036C8.71431 18.8036 8.23807 18.849 7.73034 18.9346C6.9061 19.0734 6.26086 19.72 6.1238 20.5445C5.95912 21.5349 5.87402 22.5235 5.87402 23.5094C5.87402 27.9046 7.46899 32.0551 10.3057 35.2816C10.8588 35.9106 11.7508 36.1183 12.5249 35.7982C15.7904 34.4477 17.9647 31.2421 17.9647 27.6319ZM19.4246 10.2942C19.4732 10.5723 19.498 10.8562 19.498 11.1438C19.498 13.8598 17.3214 16.0553 14.6452 16.0553C13.8254 16.0553 13.0393 15.8486 12.3429 15.4667C14.0792 13.0166 16.5679 11.1912 19.4246 10.2942ZM12.2623 31.4371C10.6682 29.1401 9.79063 26.3957 9.79063 23.5096C9.79063 23.2605 9.7977 23.0105 9.81165 22.7597C12.1978 23.0662 14.0481 25.1279 14.0481 27.6319C14.0481 29.1437 13.367 30.5252 12.2623 31.4371Z" fill="white"/>
</g>
<defs>
<clipPath id="clip0_16_2340">
<rect width="47" height="47" fill="white"/>
</clipPath>
</defs>
</svg>
