<svg width="15" height="16" viewBox="0 0 15 16" fill="none" xmlns="http://www.w3.org/2000/svg">
<path d="M14 8.04339C14 11.9333 11.0898 15.0868 7.5 15.0868C3.91015 15.0868 1 11.9333 1 8.04339M14 8.04339C14 4.15343 11.0898 1 7.5 1M14 8.04339H12.375M1 8.04339C1 4.15343 3.91015 1 7.5 1M1 8.04339H2.625M7.5 1V2.76085M12.101 3.11302L8.47493 6.98688M12.101 13.029L11.9684 12.8854C11.5188 12.3981 11.2939 12.1545 11.0315 11.9802C10.7989 11.8258 10.5453 11.7119 10.28 11.6429C9.98079 11.5651 9.66281 11.5651 9.02685 11.5651H5.97312C5.33719 11.5651 5.01922 11.5651 4.72 11.643C4.4547 11.712 4.20109 11.8258 3.96846 11.9803C3.70608 12.1545 3.48125 12.3982 3.03157 12.8854L2.89906 13.029M2.89906 3.11302L4.02775 4.33607M8.8 8.04339C8.8 8.8214 8.21799 9.45207 7.5 9.45207C6.78201 9.45207 6.2 8.8214 6.2 8.04339C6.2 7.26538 6.78201 6.63471 7.5 6.63471C8.21799 6.63471 8.8 7.26538 8.8 8.04339Z" stroke="#FF0000" stroke-linecap="round" stroke-linejoin="round"/>
</svg>
