<svg width="42" height="42" viewBox="0 0 42 42" fill="none" xmlns="http://www.w3.org/2000/svg">
<path d="M10.3705 36.0045C11.9095 37.2937 13.732 38.1999 15.6888 38.6488C15.876 38.71 16.002 38.465 15.876 38.3425C11.6848 34.3438 13.9878 30.016 15.6888 28.0648C16.9015 26.6718 18.6288 24.3775 18.5028 21.301C18.5028 20.993 18.8178 20.7463 19.0663 20.9318C21.4445 22.162 23.0703 24.8693 23.5078 27.083C24.1973 26.4075 24.4475 25.361 24.4475 24.4388C24.4475 24.1308 24.822 23.884 25.1353 24.1308C27.3875 26.1608 31.2655 33.0505 25.0093 38.4633C24.885 38.5875 25.0093 38.8343 25.1353 38.773C27.0323 38.2757 28.8163 37.4191 30.3905 36.2495C40.5878 28.3745 33.9553 14.4095 29.638 9.79652C29.0763 9.24177 28.0753 9.61102 28.0753 10.4108C28.0123 12.0733 27.5118 13.9178 26.1993 15.148C25.1983 10.9655 21.8628 6.21427 17.108 3.87627C16.4833 3.56827 15.7325 4.06002 15.7955 4.73727C15.918 10.4598 12.1853 14.1033 8.93203 18.8405C6.05328 23.0843 4.17728 30.898 10.3705 36.0045Z" fill="#FF0000"/>
</svg>
