<svg width="46" height="46" viewBox="0 0 46 46" fill="none" xmlns="http://www.w3.org/2000/svg">
<path fill-rule="evenodd" clip-rule="evenodd" d="M25.875 24.4375C25.875 23.9114 25.7241 23.4255 25.4768 23H20.5232C20.2759 23.4255 20.125 23.9114 20.125 24.4375C20.125 26.0245 21.413 27.3125 23 27.3125C24.587 27.3125 25.875 26.0245 25.875 24.4375ZM28.75 24.4375C28.75 27.6129 26.1754 30.1875 23 30.1875C19.8246 30.1875 17.25 27.6129 17.25 24.4375C17.25 23.9373 17.3276 23.4586 17.4527 23H0V38.8125C0 41.9879 2.57456 44.5625 5.75 44.5625H40.25C43.4254 44.5625 46 41.9879 46 38.8125V23H28.5473C28.6724 23.4586 28.75 23.9373 28.75 24.4375ZM28.75 7.1875H17.25V5.75C17.25 4.9565 17.894 4.3125 18.6875 4.3125H27.3125C28.106 4.3125 28.75 4.9565 28.75 5.75V7.1875ZM40.25 7.1875H31.625V4.3125C31.625 2.7255 30.337 1.4375 28.75 1.4375H17.25C15.663 1.4375 14.375 2.7255 14.375 4.3125V7.1875H5.75C2.57456 7.1875 0 9.76206 0 12.9375V20.125H46V12.9375C46 9.76206 43.4254 7.1875 40.25 7.1875Z" fill="#FF0000"/>
</svg>
